<svg aria-hidden="true" style="position: absolute; width: 0; height: 0; overflow: hidden;" version="1.1" xmlns="http://www.w3.org/2000/svg" xmlns:xlink="http://www.w3.org/1999/xlink">
<defs>
<symbol id="icon-Rounded-rectangle" viewBox="0 0 25 32">
<path fill="#fff8f2" style="fill: var(--color1, #fff8f2)" d="M12.58 0c6.948 0 12.58 5.632 12.58 12.58v6.839c0 6.948-5.632 12.58-12.58 12.58s-12.58-5.632-12.58-12.58v-6.839c0-6.948 5.632-12.58 12.58-12.58z"></path>
</symbol>
<symbol id="icon-Vector-2" viewBox="0 0 27 32">
<path fill="none" opacity="0.5" stroke="#d26d60" style="stroke: var(--color2, #d26d60)" stroke-linejoin="miter" stroke-linecap="butt" stroke-miterlimit="4" stroke-width="0.8136" d="M0.814 23.284c4.532-6.66 5.193-17.575 4.957-22.199 6.231 6.105 16.286 11.331 20.535 13.181-5.665 4.995-6.137 13.181-5.665 16.65-7.931-6.105-16.522-7.631-19.827-7.631z"></path>
</symbol>
<symbol id="icon-Vector-1" viewBox="0 0 28 32">
<path fill="#ff553e" style="fill: var(--color3, #ff553e)" opacity="0.2" d="M1.863 0.256c0.054-0.099 0.179-0.136 0.279-0.081s0.136 0.179 0.081 0.279l-0.36-0.197zM9.963 17.208v0zM27.45 30.064c0.087 0.073 0.098 0.202 0.026 0.289l-1.185 1.416c-0.073 0.087-0.202 0.098-0.289 0.025s-0.098-0.202-0.026-0.289l1.053-1.258-1.258-1.053c-0.087-0.073-0.098-0.202-0.026-0.289s0.202-0.098 0.289-0.026l1.416 1.185zM2.223 0.453c-1.213 2.21-2.268 5.683-1.525 8.927 0.371 1.617 1.188 3.18 2.662 4.51 1.475 1.331 3.617 2.436 6.648 3.118l-0.090 0.4c-3.082-0.694-5.293-1.825-6.832-3.214-1.541-1.39-2.399-3.030-2.787-4.723-0.774-3.377 0.324-6.955 1.565-9.216l0.36 0.197zM10.008 17.008c3.785 0.852 6.49 0.368 8.271-0.734 1.78-1.101 2.663-2.834 2.782-4.539 0.12-1.71-0.529-3.376-1.794-4.353-1.257-0.969-3.162-1.288-5.626-0.223l-0.163-0.377c2.568-1.11 4.639-0.805 6.039 0.275 1.392 1.073 2.080 2.883 1.953 4.706-0.128 1.828-1.076 3.684-2.975 4.86-1.898 1.174-4.721 1.653-8.577 0.785l0.090-0.4zM13.641 7.159c-2.446 1.057-3.853 3.085-4.334 5.528-0.481 2.448-0.030 5.313 1.256 8.009 2.57 5.389 8.451 10.056 16.737 9.321l0.036 0.409c-8.479 0.752-14.51-4.032-17.144-9.553-1.316-2.759-1.79-5.714-1.288-8.265 0.503-2.557 1.987-4.708 4.573-5.825l0.163 0.377z"></path>
</symbol>
</defs>
</svg>
