<svg xmlns="http://www.w3.org/2000/svg" aria-hidden="true" overflow="hidden" style="position:absolute;width:0;height:0"><defs><symbol id="icon-GooglePlay" viewBox="0 0 133 32"><path d="M69.85 7.39c-1.03 0-1.899-.362-2.586-1.074a3.669 3.669 0 0 1-1.045-2.622c0-1.04.352-1.921 1.045-2.619.684-.713 1.552-1.074 2.583-1.074 1.019 0 1.887.362 2.586 1.074.693.721 1.045 1.602 1.045 2.619-.011 1.043-.363 1.924-1.045 2.619-.684.718-1.552 1.077-2.583 1.077zm-30.656 0a3.582 3.582 0 0 1-2.597-1.06c-.71-.701-1.07-1.587-1.07-2.633s.36-1.932 1.07-2.633c.701-.704 1.575-1.06 2.597-1.06.5 0 .985.1 1.45.302.457.197.829.465 1.104.792l.068.083-.769.758-.08-.094c-.434-.519-1.016-.772-1.785-.772-.687 0-1.286.245-1.78.73-.497.487-.749 1.126-.749 1.898s.253 1.411.749 1.898c.494.484 1.093.73 1.78.73.732 0 1.348-.245 1.828-.73.284-.285.46-.684.522-1.188h-2.466V3.345h3.525l.014.097c.026.18.051.365.051.536 0 .983-.295 1.778-.88 2.366-.664.695-1.533 1.049-2.583 1.049zm40.761-.151h-1.087L75.539 1.89l.028.963v4.383H74.48V.154h1.24l.034.054 3.131 5.039-.028-.96V.154h1.099v7.085zm-18.273 0h-1.101V1.22h-1.91V.154h4.919V1.22h-1.91v6.019h.003zm-3.909 0h-1.099V.154h1.099v7.085zm-6.173 0h-1.098V1.22h-1.91V.154h4.919V1.22h-1.91v6.019zm-3.704-.011h-4.212V.154h4.212V1.22h-3.111v1.944h2.807v1.054h-2.807v1.944h3.111v1.066zm20.175-1.645a2.426 2.426 0 0 0 1.78.741c.712 0 1.294-.242 1.78-.741.483-.484.727-1.12.727-1.887s-.244-1.405-.724-1.887a2.43 2.43 0 0 0-1.78-.741c-.712 0-1.294.242-1.777.741-.483.485-.727 1.12-.727 1.887s.241 1.405.721 1.887zM66.118 17.131c-2.682 0-4.856 2.043-4.856 4.862 0 2.793 2.188 4.862 4.856 4.862 2.682 0 4.856-2.058 4.856-4.862 0-2.819-2.174-4.862-4.856-4.862zm0 7.798c-1.467 0-2.73-1.22-2.73-2.947 0-1.753 1.266-2.947 2.73-2.947 1.467 0 2.731 1.194 2.731 2.947.003 1.738-1.263 2.947-2.731 2.947zm-10.596-7.798c-2.682 0-4.856 2.043-4.856 4.862 0 2.793 2.188 4.862 4.856 4.862 2.682 0 4.856-2.058 4.856-4.862 0-2.819-2.177-4.862-4.856-4.862zm0 7.798c-1.467 0-2.73-1.22-2.73-2.947 0-1.753 1.266-2.947 2.73-2.947 1.467 0 2.73 1.194 2.73 2.947 0 1.738-1.263 2.947-2.73 2.947zm-12.608-6.313v2.058h4.919c-.151 1.154-.531 2.006-1.113 2.591-.721.724-1.834 1.511-3.795 1.511-3.023 0-5.387-2.451-5.387-5.486s2.364-5.486 5.387-5.486c1.632 0 2.821.647 3.704 1.473l1.453-1.459c-1.226-1.18-2.858-2.083-5.146-2.083-4.147 0-7.627 3.392-7.627 7.544 0 4.164 3.477 7.544 7.627 7.544 2.239 0 3.92-.735 5.248-2.12 1.354-1.359 1.782-3.277 1.782-4.825 0-.482-.037-.915-.114-1.282h-6.943c.003-.003.003.023.003.023zm51.57 1.602c-.406-1.092-1.632-3.098-4.147-3.098-2.492 0-4.564 1.969-4.564 4.862 0 2.73 2.049 4.862 4.805 4.862 2.214 0 3.502-1.359 4.033-2.157l-1.643-1.106c-.545.812-1.303 1.345-2.379 1.345-1.087 0-1.848-.496-2.353-1.473l6.474-2.693c0 .003-.227-.542-.227-.542zm-6.602 1.624c-.051-1.878 1.453-2.833 2.529-2.833.849 0 1.555.419 1.797 1.029l-4.326 1.804zm-5.26 4.711h2.126V12.269h-2.126v14.284zm-3.491-8.342h-.077c-.48-.573-1.391-1.092-2.555-1.092-2.415 0-4.641 2.135-4.641 4.876 0 2.73 2.214 4.839 4.641 4.839 1.15 0 2.075-.522 2.555-1.106h.077v.698c0 1.855-.988 2.856-2.58 2.856-1.303 0-2.112-.94-2.441-1.727l-1.848.775c.531 1.282 1.947 2.87 4.286 2.87 2.492 0 4.604-1.474 4.604-5.067v-8.724h-2.01v.801h-.011zm-2.441 6.718c-1.467 0-2.694-1.231-2.694-2.933 0-1.716 1.226-2.958 2.694-2.958 1.453 0 2.58 1.257 2.58 2.958.014 1.701-1.124 2.933-2.58 2.933zm27.748-12.66h-5.084v14.284h2.126v-5.409h2.96c2.353 0 4.666-1.713 4.666-4.432s-2.305-4.443-4.669-4.443zm.062 6.88h-3.023v-4.902h3.023c1.592 0 2.492 1.32 2.492 2.451 0 1.12-.911 2.451-2.492 2.451zm13.127-2.044c-1.544 0-3.136.687-3.795 2.183l1.885.787c.406-.787 1.149-1.055 1.935-1.055 1.102 0 2.215.661 2.24 1.841v.151c-.381-.217-1.215-.547-2.214-.547-2.035 0-4.099 1.117-4.099 3.212 0 1.918 1.669 3.149 3.529 3.149 1.427 0 2.214-.647 2.704-1.397h.077v1.106h2.05v-5.472c0-2.548-1.886-3.959-4.312-3.959zm-.266 7.824c-.696 0-1.67-.342-1.67-1.22 0-1.106 1.215-1.525 2.251-1.525.936 0 1.379.202 1.936.482a2.564 2.564 0 0 1-2.518 2.263zm12.054-7.519-2.441 6.196h-.077l-2.529-6.196h-2.287l3.794 8.661-2.162 4.814h2.214l5.839-13.475h-2.351zm-19.136 9.143h2.126V12.269h-2.126v14.284zM18.92 19.829l-3.984-4.035 3.981-4.055a685.318 685.318 0 0 0 5.447 3.022c1.355.738.666 1.687 0 2.046-.144.073-1.347.742-3.131 1.734l-.002.001-.905.504-1.407.783zM18.195 20.233l-3.819-3.868L1.613 29.363c.154-.047.317-.118.491-.215l.915-.506.028-.015a8760.07 8760.07 0 0 0 15.148-8.394zM.571 29.283C.197 29.027 0 28.493 0 27.818V3.875c0-.746.26-1.206.62-1.441l13.194 13.361L.571 29.282zM1.597 2.286l12.777 12.94 3.805-3.875A9915.597 9915.597 0 0 0 2.105 2.486a1.633 1.633 0 0 0-.508-.199z"/></symbol><symbol id="icon-AppStore" viewBox="0 0 123 32"><path d="M18.212 14.601a6.089 6.089 0 0 1 2.9-5.11A6.244 6.244 0 0 0 16.2 6.835c-2.067-.217-4.07 1.237-5.124 1.237-1.074 0-2.695-1.215-4.441-1.179A6.536 6.536 0 0 0 1.13 10.25c-2.38 4.121-.605 10.178 1.675 13.509 1.141 1.631 2.474 3.453 4.219 3.389 1.707-.071 2.345-1.089 4.405-1.089 2.042 0 2.64 1.089 4.42 1.047 1.832-.03 2.986-1.639 4.087-3.285a13.497 13.497 0 0 0 1.869-3.806 5.885 5.885 0 0 1-3.593-5.414zM14.849 4.645A5.997 5.997 0 0 0 16.221.349a6.1 6.1 0 0 0-3.948 2.043 5.718 5.718 0 0 0-1.408 4.137 5.046 5.046 0 0 0 3.983-1.884zM39.791 23.019h-5.826l-1.399 4.131h-2.468l5.518-15.284h2.564l5.518 15.284h-2.51l-1.398-4.131zm-5.222-1.907h4.618l-2.276-6.704h-.064l-2.278 6.704zM55.614 21.579c0 3.463-1.853 5.688-4.65 5.688a3.777 3.777 0 0 1-3.506-1.95h-.053v5.519h-2.287V16.007h2.214v1.853h.042a3.954 3.954 0 0 1 3.548-1.97c2.828 0 4.692 2.236 4.692 5.689zm-2.351 0c0-2.256-1.166-3.739-2.945-3.739-1.748 0-2.923 1.514-2.923 3.739 0 2.245 1.175 3.749 2.923 3.749 1.779 0 2.945-1.472 2.945-3.749zM67.879 21.579c0 3.463-1.853 5.688-4.65 5.688a3.775 3.775 0 0 1-3.506-1.95h-.053v5.519h-2.287V16.007h2.214v1.853h.042a3.954 3.954 0 0 1 3.548-1.97c2.828 0 4.692 2.236 4.692 5.689zm-2.351 0c0-2.256-1.166-3.739-2.945-3.739-1.748 0-2.923 1.514-2.923 3.739 0 2.245 1.175 3.749 2.923 3.749 1.779 0 2.945-1.472 2.945-3.749zM75.986 22.891c.169 1.516 1.642 2.511 3.654 2.511 1.928 0 3.315-.995 3.315-2.362 0-1.186-.837-1.897-2.817-2.383l-1.981-.477c-2.807-.678-4.109-1.99-4.109-4.12 0-2.637 2.298-4.448 5.561-4.448 3.23 0 5.443 1.811 5.518 4.448h-2.309c-.138-1.525-1.399-2.446-3.242-2.446s-3.103.932-3.103 2.287c0 1.081.805 1.716 2.775 2.203l1.684.414c3.136.742 4.439 2.001 4.439 4.237 0 2.859-2.278 4.65-5.9 4.65-3.389 0-5.678-1.749-5.826-4.513h2.341zM90.308 13.37v2.637h2.119v1.811h-2.119v6.143c0 .954.424 1.399 1.356 1.399.251-.004.503-.022.752-.053v1.8a6.29 6.29 0 0 1-1.27.106c-2.256 0-3.136-.847-3.136-3.008v-6.387h-1.62v-1.811h1.62V13.37h2.298zM93.654 21.579c0-3.506 2.065-5.709 5.285-5.709 3.231 0 5.286 2.203 5.286 5.709 0 3.516-2.044 5.709-5.286 5.709-3.24 0-5.285-2.193-5.285-5.709zm8.24 0c0-2.405-1.102-3.825-2.956-3.825s-2.954 1.43-2.954 3.825c0 2.415 1.101 3.823 2.954 3.823s2.955-1.409 2.955-3.823zM106.108 16.007h2.182v1.897h.053a2.659 2.659 0 0 1 2.681-2.013c.264-.001.526.028.784.085v2.139a3.195 3.195 0 0 0-1.028-.138 2.293 2.293 0 0 0-1.781.734 2.313 2.313 0 0 0-.602 1.83v6.609h-2.287V16.007zM122.355 23.877c-.308 2.023-2.278 3.411-4.798 3.411-3.241 0-5.254-2.172-5.254-5.656 0-3.495 2.023-5.762 5.157-5.762 3.083 0 5.022 2.118 5.022 5.496v.784h-7.87v.138a2.902 2.902 0 0 0 2.998 3.157 2.524 2.524 0 0 0 2.574-1.567h2.172zm-7.732-3.326h5.571a2.669 2.669 0 0 0-.749-2.011 2.694 2.694 0 0 0-1.985-.817 2.841 2.841 0 0 0-2.008.823 2.815 2.815 0 0 0-.829 2.006zM34.282.362a3.255 3.255 0 0 1 2.592 1.006c.33.349.579.767.729 1.224s.196.941.135 1.418c0 2.346-1.268 3.695-3.456 3.695h-2.653V.361h2.653zM32.77 6.667h1.385A2.303 2.303 0 0 0 36.5 5.04c.101-.328.127-.675.077-1.014a2.324 2.324 0 0 0-.592-1.884 2.311 2.311 0 0 0-1.83-.742H32.77v5.267zM39.027 4.932a2.632 2.632 0 0 1 .67-2.016 2.618 2.618 0 0 1 1.943-.859 2.622 2.622 0 0 1 2.613 2.875 2.617 2.617 0 0 1-.669 2.019 2.62 2.62 0 0 1-3.007.636 2.63 2.63 0 0 1-1.429-1.575 2.638 2.638 0 0 1-.121-1.08zm4.102 0c0-1.201-.54-1.904-1.487-1.904-.951 0-1.486.703-1.486 1.904 0 1.211.535 1.908 1.486 1.908.947 0 1.487-.702 1.487-1.908zM51.202 7.706h-1.135l-1.145-4.082h-.087l-1.141 4.082H46.57l-1.528-5.542h1.109l.993 4.229h.082l1.139-4.229h1.049l1.139 4.229h.087l.988-4.229h1.094L51.2 7.706zM54.007 2.164h1.053v.88h.082a1.664 1.664 0 0 1 1.654-.987 1.8 1.8 0 0 1 1.856 1.262c.08.258.101.531.062.799v3.588H57.62V4.393c0-.891-.387-1.334-1.196-1.334a1.276 1.276 0 0 0-1.265.864 1.27 1.27 0 0 0-.059.54v3.242h-1.094V2.163zM60.457 0h1.094v7.706h-1.094V0zM63.072 4.932a2.632 2.632 0 0 1 .67-2.016 2.618 2.618 0 0 1 1.943-.859 2.622 2.622 0 0 1 2.613 2.875 2.634 2.634 0 0 1-.669 2.019 2.62 2.62 0 0 1-1.945.861 2.64 2.64 0 0 1-1.945-.861 2.621 2.621 0 0 1-.669-2.019zm4.103 0c0-1.201-.54-1.904-1.487-1.904-.951 0-1.485.703-1.485 1.904 0 1.211.535 1.908 1.485 1.908.947 0 1.487-.702 1.487-1.908zM69.452 6.138c0-.998.743-1.573 2.061-1.654l1.501-.087v-.478c0-.585-.387-.916-1.135-.916-.61 0-1.034.224-1.155.616h-1.059c.112-.952 1.007-1.563 2.264-1.563 1.389 0 2.173.692 2.173 1.862v3.787h-1.053v-.779h-.087a1.868 1.868 0 0 1-1.665.87 1.679 1.679 0 0 1-1.291-.42 1.681 1.681 0 0 1-.556-1.239zm3.562-.473v-.463l-1.353.087c-.763.051-1.109.311-1.109.799 0 .499.433.789 1.028.789a1.297 1.297 0 0 0 .975-.302 1.306 1.306 0 0 0 .461-.91zM75.541 4.932c0-1.751.9-2.861 2.3-2.861a1.828 1.828 0 0 1 1.7.972h.082V-.001h1.094v7.706h-1.048v-.876h-.087a1.92 1.92 0 0 1-1.74.967c-1.41 0-2.3-1.109-2.3-2.865zm1.13 0c0 1.175.554 1.883 1.481 1.883.922 0 1.492-.718 1.492-1.878 0-1.155-.576-1.883-1.492-1.883-.921 0-1.481.712-1.481 1.878zM85.241 4.932a2.632 2.632 0 0 1 .67-2.016 2.618 2.618 0 0 1 1.943-.859 2.622 2.622 0 0 1 2.613 2.875 2.634 2.634 0 0 1-.669 2.019 2.62 2.62 0 0 1-1.945.861 2.64 2.64 0 0 1-1.945-.861 2.621 2.621 0 0 1-.669-2.019zm4.102 0c0-1.201-.54-1.904-1.487-1.904-.951 0-1.486.703-1.486 1.904 0 1.211.535 1.908 1.486 1.908.947 0 1.487-.702 1.487-1.908zM91.935 2.164h1.053v.88h.082a1.664 1.664 0 0 1 1.654-.987 1.8 1.8 0 0 1 1.856 1.262c.08.258.101.531.062.799v3.588h-1.094V4.393c0-.891-.387-1.334-1.196-1.334a1.276 1.276 0 0 0-.985.398 1.261 1.261 0 0 0-.338 1.006v3.242h-1.094V2.163zM102.823.784v1.405h1.201v.921h-1.201v2.85c0 .581.239.835.784.835.139 0 .279-.009.417-.025v.911a3.589 3.589 0 0 1-.595.056c-1.216 0-1.701-.428-1.701-1.496v-3.13h-.88V2.19h.88V.785h1.095zM105.517 0h1.084v3.054h.087a1.702 1.702 0 0 1 1.69-.992 1.818 1.818 0 0 1 1.44.584 1.823 1.823 0 0 1 .469 1.482v3.578h-1.095V4.398c0-.885-.412-1.334-1.185-1.334a1.29 1.29 0 0 0-1.323.851 1.295 1.295 0 0 0-.072.555v3.237h-1.094V.002zM116.663 6.209a2.254 2.254 0 0 1-2.402 1.604 2.504 2.504 0 0 1-1.942-.838 2.516 2.516 0 0 1-.618-2.023 2.565 2.565 0 0 1 1.492-2.673 2.56 2.56 0 0 1 1.063-.222c1.542 0 2.472 1.054 2.472 2.794v.382h-3.913v.061a1.461 1.461 0 0 0 .882 1.469c.187.081.39.121.594.119a1.334 1.334 0 0 0 1.318-.672h1.053zm-3.847-1.786h2.799a1.325 1.325 0 0 0-.364-1.019 1.336 1.336 0 0 0-1-.416 1.414 1.414 0 0 0-1.435 1.435z"/></symbol></defs></svg>