<svg xmlns="http://www.w3.org/2000/svg" aria-hidden="true" overflow="hidden" style="position:absolute;width:0;height:0"><defs><symbol id="icon-Instagram" viewBox="0 0 30 32"><path d="M14.629 0c1.956.074 3.981.074 5.937.149 1.746.074 3.353.372 4.889 1.337 1.956 1.263 3.143 3.121 3.562 5.498.21 1.412.28 2.898.349 4.31.07 3.121 0 6.242 0 9.362 0 1.635-.07 3.269-.559 4.83-.978 3.046-3.003 4.904-5.937 5.499-1.327.297-2.724.297-4.051.372-2.934.074-5.797 0-8.731 0-1.537 0-3.073-.074-4.54-.594-2.864-1.04-4.61-3.195-5.169-6.316C.1 23.035.1 21.549.03 20.137c-.07-3.121 0-6.242 0-9.362 0-1.635.07-3.269.559-4.83.978-3.046 3.003-4.904 5.937-5.498C7.853.15 9.25.15 10.577.075s2.654-.074 4.051-.074zm12.083 15.381c-.07 0 0 0 0 0-.07-1.263-.07-2.452-.07-3.715 0-1.189-.07-2.378-.209-3.567-.279-2.675-1.746-4.458-4.191-4.978-1.257-.297-2.654-.297-3.912-.297a125.84 125.84 0 0 0-7.474 0c-1.257 0-2.515.074-3.702.297-2.095.372-3.562 1.635-4.191 3.864-.21.743-.279 1.486-.349 2.229-.07 2.824-.07 5.647-.07 8.471 0 1.783.07 3.641.21 5.424.21 2.675 1.746 4.533 4.261 4.978 1.257.223 2.584.297 3.912.297 2.445.074 4.889 0 7.404 0 1.118 0 2.235-.074 3.353-.223 1.048-.074 2.026-.446 2.864-1.189 1.397-1.189 1.886-2.749 1.956-4.533.14-2.229.14-4.607.209-7.059z"/><path d="M22.176 15.679c0 4.458-3.353 8.025-7.544 8.025s-7.544-3.567-7.544-8.099c0-4.384 3.423-7.95 7.614-7.95 4.121 0 7.474 3.567 7.474 8.025zm-7.542 5.202c2.654 0 4.889-2.378 4.889-5.201s-2.235-5.201-4.889-5.201c-2.724 0-4.889 2.378-4.889 5.201-.07 2.824 2.165 5.201 4.889 5.201zM24.195 6.845c0 .978-.768 1.816-1.746 1.816s-1.816-.838-1.746-1.816c0-.978.768-1.746 1.746-1.746s1.746.768 1.746 1.746z"/></symbol><symbol id="icon-Linkedin" viewBox="0 0 34 32"><path d="M32.652 19.102V31.16h-7.041V19.894c0-2.817-.968-4.753-3.521-4.753-1.936 0-3.08 1.32-3.609 2.552-.176.44-.264 1.056-.264 1.672v11.794h-7.041s.088-19.099 0-21.036h7.041v2.993s0 .088-.088.088h.088v-.088c.968-1.408 2.553-3.521 6.337-3.521 4.577 0 8.097 3.081 8.097 9.506zM3.961.002C1.585.002 0 1.586 0 3.611S1.496 7.22 3.873 7.22h.088c2.464 0 3.961-1.584 3.961-3.609C7.834 1.587 6.338.002 3.961.002zM.353 31.16h6.953V10.124H.353V31.16z"/></symbol><symbol id="icon-Facebook" viewBox="0 0 16 32"><path d="M13.757 15.422H9.449v15.42H3.024v-15.42H.001V9.98h3.023V6.427c0-2.494 1.209-6.425 6.425-6.425h4.762v5.291H10.81c-.529 0-1.361.302-1.361 1.512V9.98h4.838l-.529 5.442z"/></symbol><symbol id="icon-Twitter" viewBox="0 0 38 32"><path d="M37.008 4.503c-1.393.61-2.787 1.045-4.354 1.219 1.567-.958 2.787-2.438 3.309-4.18-1.48.871-3.135 1.48-4.789 1.829-1.393-1.48-3.396-2.438-5.573-2.438a7.581 7.581 0 0 0-7.576 7.576c0 .61.087 1.219.174 1.742-6.357-.348-11.93-3.309-15.674-7.924C1.828 3.459 1.48 4.765 1.48 6.158a7.615 7.615 0 0 0 3.396 6.357 6.976 6.976 0 0 1-3.483-.958v.087c0 3.657 2.612 6.792 6.095 7.489a7.43 7.43 0 0 1-2.003.261c-.522 0-.958-.087-1.393-.174.958 3.048 3.744 5.224 7.14 5.312-2.612 2.003-5.834 3.222-9.404 3.222-.61 0-1.219 0-1.829-.087 3.396 2.177 7.314 3.396 11.668 3.396 14.019 0 21.595-11.581 21.595-21.595V8.51c1.48-1.132 2.786-2.525 3.744-4.005z"/></symbol></defs></svg>